<?xml version="1.0" standalone="no"?>
<!DOCTYPE svg PUBLIC "-//W3C//DTD SVG 20010904//EN"
 "http://www.w3.org/TR/2001/REC-SVG-20010904/DTD/svg10.dtd">
<svg version="1.0" xmlns="http://www.w3.org/2000/svg"
 width="1983.000000pt" height="1983.000000pt" viewBox="0 0 1983.000000 1983.000000"
 preserveAspectRatio="xMidYMid meet">

<g transform="translate(0.000000,1983.000000) scale(0.100000,-0.100000)">
<path d="M9500 19744 c-30 -2 -134 -8 -230 -14 -1194 -72 -2396 -379 -3507
-894 -1259 -583 -2413 -1460 -3328 -2531 -1301 -1521 -2104 -3395 -2304 -5375
-39 -384 -46 -528 -46 -1015 0 -487 7 -631 46 -1015 203 -2008 1024 -3901
2359 -5440 673 -775 1484 -1455 2370 -1986 1231 -739 2614 -1199 4040 -1343
384 -39 528 -46 1015 -46 487 0 631 7 1015 46 1426 144 2809 604 4040 1343
1910 1146 3391 2922 4160 4991 340 915 525 1775 602 2800 17 227 17 1073 0
1300 -96 1278 -381 2391 -896 3502 -964 2081 -2688 3805 -4769 4769 -1104 512
-2217 798 -3482 894 -136 11 -974 21 -1085 14z m980 -225 c2017 -119 3910
-851 5483 -2122 504 -407 1027 -930 1434 -1434 1055 -1306 1742 -2836 2012
-4483 131 -795 160 -1646 85 -2460 -161 -1762 -810 -3446 -1873 -4865 -469
-626 -1055 -1235 -1658 -1722 -1306 -1055 -2836 -1742 -4483 -2012 -795 -131
-1646 -160 -2460 -85 -1762 161 -3446 810 -4865 1873 -626 469 -1235 1055
-1722 1658 -1055 1306 -1742 2836 -2012 4483 -131 795 -160 1646 -85 2460 161
1762 810 3446 1873 4865 469 626 1055 1235 1658 1722 1086 877 2318 1497 3658
1838 703 180 1377 274 2140 299 151 5 629 -4 815 -15z"/>
<path d="M7570 17135 c-1290 -1290 -2346 -2348 -2347 -2352 -2 -5 1053 -1064
2344 -2355 l2348 -2348 2350 2350 2350 2350 -2350 2350 -2350 2350 -2345
-2345z"/>
<path d="M4710 14270 c-195 -192 -383 -378 -417 -412 -35 -35 -932 -935 -1995
-2001 l-1933 -1937 2350 -2350 2350 -2350 2300 2298 c1265 1264 2321 2319
2348 2344 26 25 47 49 47 54 0 5 -1056 1065 -2348 2356 l-2347 2348 -355 -350z"/>
<path d="M12442 12307 c-1271 -1271 -2312 -2317 -2312 -2322 0 -6 -12 -21 -25
-34 -23 -21 -24 -25 -10 -41 8 -9 15 -21 15 -26 0 -12 4642 -4654 4655 -4654
13 0 4695 4682 4695 4695 0 5 -842 852 -1870 1880 -1484 1484 -1878 1883
-1906 1931 -76 130 -181 234 -304 302 -39 21 -133 108 -330 306 -151 152 -279
276 -285 276 -5 0 -1051 -1041 -2323 -2313z"/>
<path d="M9888 9762 c-9 -4 -45 -39 -80 -79 -35 -39 -126 -138 -203 -220 -77
-82 -925 -1036 -1885 -2121 -1718 -1942 -1746 -1974 -1797 -2073 -97 -190
-138 -364 -131 -554 7 -169 35 -249 128 -365 38 -48 95 -108 127 -134 32 -26
914 -903 1960 -1949 l1903 -1902 2352 2352 2353 2353 -2220 2220 c-1221 1221
-2223 2220 -2228 2220 -4 0 -65 58 -135 129 -95 98 -131 128 -144 123z"/>
</g>
</svg>
